#tb 0: 1/5
0,          0,          0,        1,    16384, 0x4c7bb4cb
0,          1,          1,        1,    16384, 0x914e14b4
0,          2,          2,        1,    16384, 0x81e293cb
0,          3,          3,        1,    16384, 0xf733ed43
0,          4,          4,        1,    16384, 0x739a6c21
0,          5,          5,        1,    16384, 0x47f9184a
0,          6,          6,        1,    16384, 0x329f9d3e
0,          7,          7,        1,    16384, 0x231ffd9c
0,          8,          8,        1,    16384, 0xe7c2c4c6
0,          9,          9,        1,    16384, 0x880d8ffb
0,         10,         10,        1,    16384, 0xf83238d2
